<mxfile host="app.diagrams.net" modified="2021-04-24T08:50:42.511Z" agent="5.0 (Windows NT 10.0; Win64; x64) AppleWebKit/537.36 (KHTML, like Gecko) Chrome/90.0.4430.85 Safari/537.36" etag="t7HpY64QeXxrUItb76eN" version="14.6.5" type="github">
  <diagram id="RjL65P1aRRZRDLuV3ifW" name="Page-1">
    <mxGraphModel dx="1038" dy="539" grid="1" gridSize="10" guides="1" tooltips="1" connect="1" arrows="1" fold="1" page="1" pageScale="1" pageWidth="827" pageHeight="1169" math="0" shadow="0">
      <root>
        <mxCell id="0" />
        <mxCell id="1" parent="0" />
        <mxCell id="ZmmidJCE4Ug7G_iG6otK-1" value="" style="endArrow=none;dashed=1;html=1;dashPattern=1 3;strokeWidth=2;" edge="1" parent="1">
          <mxGeometry width="50" height="50" relative="1" as="geometry">
            <mxPoint x="50" y="500" as="sourcePoint" />
            <mxPoint x="780" y="500" as="targetPoint" />
          </mxGeometry>
        </mxCell>
        <mxCell id="ZmmidJCE4Ug7G_iG6otK-2" value="SAP Table" style="text;html=1;resizable=0;autosize=1;align=center;verticalAlign=middle;points=[];fillColor=none;strokeColor=none;rounded=0;" vertex="1" parent="1">
          <mxGeometry x="30" y="510" width="70" height="20" as="geometry" />
        </mxCell>
        <mxCell id="ZmmidJCE4Ug7G_iG6otK-3" value="SAP FACT" style="text;html=1;resizable=0;autosize=1;align=center;verticalAlign=middle;points=[];fillColor=none;strokeColor=none;rounded=0;" vertex="1" parent="1">
          <mxGeometry x="30" y="350" width="70" height="20" as="geometry" />
        </mxCell>
        <mxCell id="ZmmidJCE4Ug7G_iG6otK-4" value="" style="endArrow=none;dashed=1;html=1;dashPattern=1 3;strokeWidth=2;" edge="1" parent="1">
          <mxGeometry width="50" height="50" relative="1" as="geometry">
            <mxPoint x="60" y="350" as="sourcePoint" />
            <mxPoint x="790" y="350" as="targetPoint" />
          </mxGeometry>
        </mxCell>
        <mxCell id="ZmmidJCE4Ug7G_iG6otK-5" value="SAP Composite" style="text;html=1;resizable=0;autosize=1;align=center;verticalAlign=middle;points=[];fillColor=none;strokeColor=none;rounded=0;" vertex="1" parent="1">
          <mxGeometry x="30" y="180" width="100" height="20" as="geometry" />
        </mxCell>
        <mxCell id="ZmmidJCE4Ug7G_iG6otK-6" value="" style="endArrow=none;dashed=1;html=1;dashPattern=1 3;strokeWidth=2;" edge="1" parent="1">
          <mxGeometry width="50" height="50" relative="1" as="geometry">
            <mxPoint x="70" y="180" as="sourcePoint" />
            <mxPoint x="805" y="180" as="targetPoint" />
          </mxGeometry>
        </mxCell>
        <mxCell id="ZmmidJCE4Ug7G_iG6otK-7" value="MKPF" style="shape=cylinder3;whiteSpace=wrap;html=1;boundedLbl=1;backgroundOutline=1;size=15;" vertex="1" parent="1">
          <mxGeometry x="119" y="540" width="60" height="80" as="geometry" />
        </mxCell>
        <mxCell id="ZmmidJCE4Ug7G_iG6otK-8" value="MSEG" style="shape=cylinder3;whiteSpace=wrap;html=1;boundedLbl=1;backgroundOutline=1;size=15;" vertex="1" parent="1">
          <mxGeometry x="339" y="540" width="60" height="80" as="geometry" />
        </mxCell>
        <mxCell id="ZmmidJCE4Ug7G_iG6otK-9" value="ZIMMMAB_MaterialDoc" style="rounded=1;whiteSpace=wrap;html=1;" vertex="1" parent="1">
          <mxGeometry x="179" y="390" width="150" height="60" as="geometry" />
        </mxCell>
        <mxCell id="ZmmidJCE4Ug7G_iG6otK-10" value="" style="shape=flexArrow;endArrow=classic;html=1;" edge="1" parent="1" source="ZmmidJCE4Ug7G_iG6otK-7" target="ZmmidJCE4Ug7G_iG6otK-9">
          <mxGeometry width="50" height="50" relative="1" as="geometry">
            <mxPoint x="330" y="550" as="sourcePoint" />
            <mxPoint x="380" y="500" as="targetPoint" />
          </mxGeometry>
        </mxCell>
        <mxCell id="ZmmidJCE4Ug7G_iG6otK-11" value="" style="shape=flexArrow;endArrow=classic;html=1;exitX=0.145;exitY=0;exitDx=0;exitDy=4.35;exitPerimeter=0;" edge="1" parent="1" source="ZmmidJCE4Ug7G_iG6otK-8" target="ZmmidJCE4Ug7G_iG6otK-9">
          <mxGeometry width="50" height="50" relative="1" as="geometry">
            <mxPoint x="420" y="510" as="sourcePoint" />
            <mxPoint x="470" y="460" as="targetPoint" />
          </mxGeometry>
        </mxCell>
        <mxCell id="ZmmidJCE4Ug7G_iG6otK-12" value="" style="edgeStyle=entityRelationEdgeStyle;fontSize=12;html=1;endArrow=ERoneToMany;startArrow=ERmandOne;" edge="1" parent="1" source="ZmmidJCE4Ug7G_iG6otK-7" target="ZmmidJCE4Ug7G_iG6otK-8">
          <mxGeometry width="100" height="100" relative="1" as="geometry">
            <mxPoint x="280" y="760" as="sourcePoint" />
            <mxPoint x="380" y="660" as="targetPoint" />
          </mxGeometry>
        </mxCell>
        <mxCell id="ZmmidJCE4Ug7G_iG6otK-13" value="EKBE" style="shape=cylinder3;whiteSpace=wrap;html=1;boundedLbl=1;backgroundOutline=1;size=15;" vertex="1" parent="1">
          <mxGeometry x="510" y="540" width="60" height="80" as="geometry" />
        </mxCell>
        <mxCell id="ZmmidJCE4Ug7G_iG6otK-14" value="ZIMMEKB_PurchasingHistory" style="rounded=1;whiteSpace=wrap;html=1;" vertex="1" parent="1">
          <mxGeometry x="450" y="390" width="180" height="60" as="geometry" />
        </mxCell>
        <mxCell id="ZmmidJCE4Ug7G_iG6otK-15" value="EKKN" style="shape=cylinder3;whiteSpace=wrap;html=1;boundedLbl=1;backgroundOutline=1;size=15;" vertex="1" parent="1">
          <mxGeometry x="680" y="540" width="60" height="80" as="geometry" />
        </mxCell>
        <mxCell id="ZmmidJCE4Ug7G_iG6otK-16" value="ZIMMKEB_PurchaseAssignment" style="rounded=1;whiteSpace=wrap;html=1;" vertex="1" parent="1">
          <mxGeometry x="720" y="390" width="190" height="60" as="geometry" />
        </mxCell>
        <mxCell id="ZmmidJCE4Ug7G_iG6otK-17" value="" style="shape=flexArrow;endArrow=classic;html=1;" edge="1" parent="1" source="ZmmidJCE4Ug7G_iG6otK-15" target="ZmmidJCE4Ug7G_iG6otK-16">
          <mxGeometry width="50" height="50" relative="1" as="geometry">
            <mxPoint x="801" y="500" as="sourcePoint" />
            <mxPoint x="851" y="450" as="targetPoint" />
          </mxGeometry>
        </mxCell>
        <mxCell id="ZmmidJCE4Ug7G_iG6otK-18" value="PRPS" style="shape=cylinder3;whiteSpace=wrap;html=1;boundedLbl=1;backgroundOutline=1;size=15;" vertex="1" parent="1">
          <mxGeometry x="900" y="540" width="60" height="80" as="geometry" />
        </mxCell>
        <mxCell id="ZmmidJCE4Ug7G_iG6otK-19" value="" style="shape=flexArrow;endArrow=classic;html=1;" edge="1" parent="1" source="ZmmidJCE4Ug7G_iG6otK-18" target="ZmmidJCE4Ug7G_iG6otK-16">
          <mxGeometry width="50" height="50" relative="1" as="geometry">
            <mxPoint x="850" y="540" as="sourcePoint" />
            <mxPoint x="900" y="490" as="targetPoint" />
          </mxGeometry>
        </mxCell>
        <mxCell id="ZmmidJCE4Ug7G_iG6otK-20" value="" style="shape=flexArrow;endArrow=classic;html=1;" edge="1" parent="1" source="ZmmidJCE4Ug7G_iG6otK-13" target="ZmmidJCE4Ug7G_iG6otK-14">
          <mxGeometry width="50" height="50" relative="1" as="geometry">
            <mxPoint x="460" y="560" as="sourcePoint" />
            <mxPoint x="510" y="510" as="targetPoint" />
          </mxGeometry>
        </mxCell>
        <mxCell id="ZmmidJCE4Ug7G_iG6otK-21" value="ZCMMMAB_MaterialDoc" style="rounded=1;whiteSpace=wrap;html=1;" vertex="1" parent="1">
          <mxGeometry x="310" y="240" width="156" height="60" as="geometry" />
        </mxCell>
        <mxCell id="ZmmidJCE4Ug7G_iG6otK-22" value="ZCMMIMB_IncomingMaterial" style="rounded=1;whiteSpace=wrap;html=1;" vertex="1" parent="1">
          <mxGeometry x="600" y="240" width="170" height="60" as="geometry" />
        </mxCell>
        <mxCell id="ZmmidJCE4Ug7G_iG6otK-23" value="" style="shape=flexArrow;endArrow=classic;html=1;exitX=0.5;exitY=0;exitDx=0;exitDy=0;" edge="1" parent="1" source="ZmmidJCE4Ug7G_iG6otK-9" target="ZmmidJCE4Ug7G_iG6otK-21">
          <mxGeometry width="50" height="50" relative="1" as="geometry">
            <mxPoint x="270" y="370" as="sourcePoint" />
            <mxPoint x="320" y="320" as="targetPoint" />
          </mxGeometry>
        </mxCell>
        <mxCell id="ZmmidJCE4Ug7G_iG6otK-24" value="" style="shape=flexArrow;endArrow=classic;html=1;exitX=0.413;exitY=-0.013;exitDx=0;exitDy=0;exitPerimeter=0;" edge="1" parent="1" source="ZmmidJCE4Ug7G_iG6otK-14" target="ZmmidJCE4Ug7G_iG6otK-21">
          <mxGeometry width="50" height="50" relative="1" as="geometry">
            <mxPoint x="380" y="360" as="sourcePoint" />
            <mxPoint x="430" y="310" as="targetPoint" />
          </mxGeometry>
        </mxCell>
        <mxCell id="ZmmidJCE4Ug7G_iG6otK-25" value="" style="shape=flexArrow;endArrow=classic;html=1;" edge="1" parent="1" source="ZmmidJCE4Ug7G_iG6otK-21" target="ZmmidJCE4Ug7G_iG6otK-22">
          <mxGeometry width="50" height="50" relative="1" as="geometry">
            <mxPoint x="490" y="320" as="sourcePoint" />
            <mxPoint x="540" y="270" as="targetPoint" />
          </mxGeometry>
        </mxCell>
        <mxCell id="ZmmidJCE4Ug7G_iG6otK-26" value="" style="shape=flexArrow;endArrow=classic;html=1;" edge="1" parent="1" source="ZmmidJCE4Ug7G_iG6otK-16" target="ZmmidJCE4Ug7G_iG6otK-22">
          <mxGeometry width="50" height="50" relative="1" as="geometry">
            <mxPoint x="780" y="360" as="sourcePoint" />
            <mxPoint x="830" y="310" as="targetPoint" />
          </mxGeometry>
        </mxCell>
        <mxCell id="ZmmidJCE4Ug7G_iG6otK-27" value="ZQMMIMB_IncomingMaterial" style="rounded=1;whiteSpace=wrap;html=1;" vertex="1" parent="1">
          <mxGeometry x="450" y="70" width="174" height="60" as="geometry" />
        </mxCell>
        <mxCell id="ZmmidJCE4Ug7G_iG6otK-28" value="" style="shape=flexArrow;endArrow=classic;html=1;" edge="1" parent="1" source="ZmmidJCE4Ug7G_iG6otK-22" target="ZmmidJCE4Ug7G_iG6otK-27">
          <mxGeometry width="50" height="50" relative="1" as="geometry">
            <mxPoint x="570" y="200" as="sourcePoint" />
            <mxPoint x="620" y="150" as="targetPoint" />
          </mxGeometry>
        </mxCell>
      </root>
    </mxGraphModel>
  </diagram>
</mxfile>
